# xmcd
#
# Track frame offsets:
#	150
#	10249
#	26725
#	42981
#	54058
#	64383
#	84237
#	99362
#	116741
#	132543
#	145195
#	164073
#
# Disc length: 2399 seconds
#
# Revision: 1
# Processed by: cddbd v1.5.2PL0 Copyright (c) Steve Scherf et al.
# Submitted via: audiograbber 1.83.01
#
DISCID=a2095d0c
DTITLE=Angela Dawn - Angela Dawn
DYEAR=2003
DGENRE=
TTITLE0=It´s A Messes Up Situation
TTITLE1=One More Time
TTITLE2=Remember The Days
TTITLE3=Tootsie
TTITLE4=You Better Hold On To Your Memory
TTITLE5=Mothers Pain Of Love
TTITLE6=White House Tennessee
TTITLE7=Your Lying Ways
TTITLE8=Slow Talking Man
TTITLE9=With Our Image En My Coffe Cup
TTITLE10=Let´s Take It Slow And Easy
TTITLE11=No Doors Only Windows
EXTD=
EXTT0=
EXTT1=
EXTT2=
EXTT3=
EXTT4=
EXTT5=
EXTT6=
EXTT7=
EXTT8=
EXTT9=
EXTT10=
EXTT11=
PLAYORDER=
